Coordinates
version=1
nRows=13
nColumns=36
inDegrees=yes

Units are S.I. units (second, meters, Newtons, ...)
If the header above contains a line with 'inDegrees', this indicates whether rotational values are in degrees (yes) or radians (no).

endheader
time	pelvis_tilt	pelvis_list	pelvis_rotation	pelvis_tx	pelvis_ty	pelvis_tz	hip_flexion_r	hip_adduction_r	hip_rotation_r	knee_angle_r	knee_angle_r_beta	ankle_angle_r	subtalar_angle_r	mtp_angle_r	hip_flexion_l	hip_adduction_l	hip_rotation_l	knee_angle_l	knee_angle_l_beta	ankle_angle_l	subtalar_angle_l	mtp_angle_l	lumbar_extension	lumbar_bending	lumbar_rotation	arm_flex_r	arm_add_r	arm_rot_r	elbow_flex_r	pro_sup_r	arm_flex_l	arm_add_l	arm_rot_l	elbow_flex_l	pro_sup_l
      0.00000000	     -2.36957710	     -1.66935768	     -0.57952497	     -0.97046339	      1.24817737	     -0.05547130	      0.23891493	      1.70658010	      0.94233640	      5.69266906	      0.09935582	      0.75063207	    -13.12658053	     -6.26156498	     -0.71746119	     -3.83533741	     -2.86047481	      6.29585711	      0.10988344	      9.97263803	     -0.64318230	     -6.26156498	     -2.47436080	      3.07099461	     -7.73561622	     52.24787709	    -14.07203638	     24.84234370	    132.68676131	     86.05859860	     -4.01731455	     -6.01906306	     -2.33811058	     62.03221823	     82.78456343
      0.00416670	     -3.99505705	     -0.76172609	     -0.59835803	     -0.97015972	      1.24635980	     -0.05568987	      2.58414704	      0.88307061	      1.05187968	      6.68799275	      0.11672749	      3.92262270	    -11.57227005	     -6.41582851	      1.32550455	     -2.33943146	     -2.38639210	      6.38875328	      0.11150478	      9.94550732	      1.30211865	     -6.41582851	     -0.80873340	      2.23437239	     -6.22592279	     51.78286905	    -13.94347178	     20.82243978	    137.17822443	     85.53066127	     -4.07029280	     -5.40467684	     -5.19393357	     60.19663271	     81.48646802
      0.00833330	     -4.78887483	      0.41771430	     -0.94177949	     -0.96867972	      1.24578417	     -0.05369618	      2.98910647	     -0.30352239	      0.22587023	      5.66532525	      0.09887858	      3.87459794	    -10.68910788	     -6.47669707	      1.70676690	     -1.16791384	     -3.12337702	      5.66876241	      0.09893857	      9.41112614	      1.59948152	     -6.47669707	      0.13211656	      0.71305044	     -5.85092537	     52.06404502	    -12.88686461	     20.60000571	    137.93667045	     84.92107082	     -4.64703515	     -6.95931419	     -5.14585017	     59.33809438	     80.77353647
      0.01250000	     -4.60635327	      0.95207752	     -1.02325410	     -0.96796463	      1.24906429	     -0.05422875	      2.27400369	     -0.97141950	     -0.71587190	      4.74831217	      0.08287368	      4.45232340	     -8.56700320	     -6.63900716	      0.84519632	     -0.50860245	     -3.55752637	      4.59005565	      0.08011158	      8.86414310	      2.12758075	     -6.63900716	      0.15599260	      0.16739613	     -4.14352019	     50.98989731	    -13.81134761	     19.87145133	    138.51403625	     86.88862191	     -2.71897501	     -7.88766892	     -2.09355856	     56.46349506	     82.21971474
      0.01666670	     -4.41398086	      1.20046264	     -0.98277699	     -0.96390652	      1.25053542	     -0.05321840	      1.31080159	     -1.18584651	     -0.84719374	      3.64921879	      0.06369088	      4.39330934	     -7.73333116	     -7.08500578	      0.06828843	     -0.15950027	     -3.68826564	      3.79078301	      0.06616164	      8.39543959	      2.22048070	     -7.08500578	      0.09134926	     -0.08851649	     -4.03801954	     50.71338263	    -13.80302589	     20.15473021	    138.27786771	     88.50883859	     -2.51146593	     -7.77190306	     -2.29963070	     55.18315960	     83.99169500
      0.02083330	     -4.25916848	      1.27301243	     -1.01205632	     -0.96448718	      1.24861463	     -0.05206645	      0.68778865	     -1.18865030	     -0.79278224	      3.01609233	      0.05264074	      4.56480559	     -7.22147995	     -7.12881531	     -0.43708594	     -0.05191665	     -3.73295108	      3.24050597	      0.05655750	      8.21826845	      2.32736852	     -7.12881531	      0.10475528	     -0.07886574	     -4.04148639	     51.02291554	    -13.59974274	     20.53776571	    137.75777980	     87.13542617	     -2.67524964	     -7.57044301	     -2.41276678	     54.99524690	     83.16441573
      0.02500000	     -4.16774387	      1.23690536	     -0.94764043	     -0.96569973	      1.24699491	     -0.05160758	      0.35631960	     -1.12591654	     -0.63917904	      2.61262807	      0.04559896	      4.71129859	     -7.04664989	     -7.15451416	     -0.58750202	     -0.08451493	     -3.56981883	      3.03979929	      0.05305451	      8.21700906	      2.35996542	     -7.15451416	      0.08930989	      0.01775105	     -4.19452907	     51.39866113	    -13.38907230	     20.62044671	    137.50132168	     86.16382373	     -2.85092922	     -7.44695326	     -2.50477893	     55.10694195	     82.52271612
      0.02916670	     -3.96223386	      1.16988958	     -1.03519071	     -0.96381320	      1.24838425	     -0.05153621	     -0.05211693	     -1.03175618	     -0.42568431	      2.35388202	      0.04108299	      4.84375460	     -6.86092182	     -7.20616474	     -0.95745517	     -0.16015008	     -3.49918397	      2.78484681	      0.04860475	      8.14307383	      2.39510002	     -7.20616474	     -0.06663510	      0.15593310	     -4.40976081	     51.76328262	    -12.96050207	     21.05638821	    137.21850914	     84.04705951	     -3.19429159	     -7.39258083	     -2.86929524	     55.26860535	     80.71810262
      0.03333330	     -3.77433627	      1.11570393	     -1.15785519	     -0.96471533	      1.24776548	     -0.05006289	     -0.36441144	     -0.91838950	      0.05852900	      2.13485813	      0.03726030	      4.78069127	     -7.13956039	     -7.27910705	     -1.23591202	     -0.24990688	     -3.77397682	      2.62147351	      0.04575334	      8.22751258	      2.82884936	     -7.27910705	     -0.15110384	      0.24564870	     -4.32361659	     51.94793857	    -12.68507659	     21.35502708	    136.77794944	     84.28135926	     -3.08350090	     -7.47952450	     -2.86503105	     54.85208827	     82.18419766
      0.03750000	     -3.63052376	      1.10075279	     -1.21458463	     -0.96647831	      1.24672428	     -0.05142636	     -0.53125332	     -0.91216187	      0.22099873	      1.99751529	      0.03486322	      4.81816422	     -7.04247367	     -7.34557719	     -1.36282434	     -0.24852221	     -3.61632044	      2.56011225	      0.04468239	      8.11728875	      2.70153695	     -7.34557719	     -0.31211051	      0.26520141	     -4.38953005	     52.16589056	    -12.58940745	     21.40493621	    136.42114294	     84.22554600	     -3.03129185	     -7.43283228	     -3.11381634	     54.53461959	     82.64999794
      0.04166670	     -3.46738694	      1.00945112	     -1.28278321	     -0.96621058	      1.24337116	     -0.05047138	     -0.71212790	     -0.78133875	      0.49824454	      1.97502813	      0.03447074	      4.91219650	     -7.15856810	     -7.35030845	     -1.54139382	     -0.36049175	     -3.63640531	      2.51688825	      0.04392799	      8.26852972	      2.86627932	     -7.35030845	     -0.49318507	      0.40125807	     -4.54464569	     52.66176582	    -12.30819554	     21.38564214	    136.02536542	     83.51475826	     -3.22242006	     -7.43150228	     -3.61997965	     54.62453496	     81.92970787
      0.04583330	     -3.36788821	      0.93957232	     -1.28074975	     -0.96705388	      1.24198827	     -0.04981785	     -0.80110745	     -0.66990312	      0.60154796	      1.98588355	      0.03466021	      5.10813705	     -7.16022387	     -7.38294082	     -1.58355386	     -0.46038369	     -3.58634596	      2.53123928	      0.04417846	      8.42161475	      2.93584537	     -7.38294082	     -0.63622085	      0.48313485	     -4.75789884	     53.23736594	    -12.16496896	     21.63878599	    135.83080122	     81.11357178	     -3.51784673	     -7.39076821	     -4.19353281	     54.94282351	     79.36568928
      0.05000000	     -3.35267404	      0.91702628	     -1.29084717	     -0.96461769	      1.24636661	     -0.05182989	     -0.82281717	     -0.65047529	      0.71571035	      1.95581907	      0.03413548	      5.07601526	     -7.11934365	     -7.38327987	     -1.64396742	     -0.47605940	     -3.68904992	      2.49296339	      0.04351042	      8.37551336	      2.88127544	     -7.38327987	     -0.63456890	      0.51837077	     -4.86266412	     53.18042201	    -12.28841773	     21.56479545	    135.93425714	     81.15188882	     -3.86537086	     -7.30910773	     -4.18101513	     54.76067240	     79.39676111
